<?xml version="1.0" encoding="iso-8859-1"?>
<!-- Uploaded to: SVG Repo, www.svgrepo.com, Generator: SVG Repo Mixer Tools -->
<!DOCTYPE svg PUBLIC "-//W3C//DTD SVG 1.1//EN" "http://www.w3.org/Graphics/SVG/1.1/DTD/svg11.dtd">
<svg fill="#000000" height="800px" width="800px" version="1.1" id="Capa_1" xmlns="http://www.w3.org/2000/svg" xmlns:xlink="http://www.w3.org/1999/xlink" 
	 viewBox="0 0 56.355 56.355" xml:space="preserve">
<g>
	<path d="M6.778,48.389c5.405,2.064,19.532,1.489,34.784-15.369c6.72-7.428,10.578-20.009,3.197-30.103l-1.202-1.281
		c-0.405,0.288-0.542,0.829-0.311,1.273l2.584,4.964c0.042,0.132,0.088,0.266,0.134,0.4c0.163,0.478,0.332,0.971,0.334,1.335
		c0.06,9.503-7.321,20.197-20.251,29.341c-4.887,3.456-8.726,5.934-12.762,7.611c-1.793,0.745-3.611,1.325-5.559,1.772
		c-0.381,0.089-0.734,0.071-1.066-0.01L6.778,48.389z"/>
	<path d="M52.561,8.584c-0.648-1.107-1.414-2.172-2.34-3.253l-3.047-4.861c-0.144-0.228-0.372-0.389-0.636-0.446
		c-0.262-0.058-0.537-0.006-0.763,0.142l-0.529,0.349l1.012,1.079c0.027,0.029,0.053,0.06,0.076,0.092
		c8.093,11.006,3.968,24.654-3.291,32.677C31.082,47.584,19.788,51.264,12.242,51.264c-2.558,0-4.684-0.422-6.261-1.04
		c-0.047-0.018-0.092-0.04-0.135-0.065l-4.801-2.767c-0.25,0.618-0.387,1.31-0.417,1.891c-0.014,0.273,0.084,0.54,0.272,0.738
		c3.969,4.202,9.008,6.333,14.976,6.333c6.335,0,13.631-2.392,21.682-7.109C53.496,39.907,60.226,21.667,52.561,8.584z"/>
	<path d="M5.126,47.437c-0.232-0.208-0.447-0.427-0.645-0.633c-0.529-0.551-0.948-0.987-1.614-1.004
		c-0.16,0-0.305,0.035-0.446,0.078L5.126,47.437z"/>
</g>
</svg>